/* XPM */
static char *a0276fa06d4745849c0bc6ba3ca6c939f1qg9a24iRCBaJBx[] = {
/* columns rows colors chars-per-pixel */
"32 32 167 2 ",
"   c None",
".  c #000101",
"X  c #000B02",
"o  c #0C0A00",
"O  c #00060A",
"+  c #020A0B",
"@  c #080600",
"#  c #110F01",
"$  c #041503",
"%  c #001A05",
"&  c #001B09",
"*  c #051607",
"=  c #141301",
"-  c #1A1600",
";  c #1C1A04",
":  c #000D15",
">  c #000F19",
",  c #00121D",
"<  c #041112",
"1  c #221E00",
"2  c #012105",
"3  c #07270A",
"4  c #1F2008",
"5  c #1E2001",
"6  c #003E0B",
"7  c #033507",
"8  c #06261E",
"9  c #2D2600",
"0  c #262100",
"q  c #332B00",
"w  c #382F00",
"e  c #393000",
"r  c #011A27",
"t  c #00322C",
"y  c #00253B",
"u  c #002237",
"i  c #003539",
"p  c #403600",
"a  c #00440B",
"s  c #004A0C",
"d  c #00530E",
"f  c #00431A",
"g  c #006C12",
"h  c #006E1A",
"j  c #007111",
"k  c #007A13",
"l  c #004C39",
"z  c #005137",
"x  c #006C2A",
"c  c #007E29",
"v  c #006932",
"b  c #4F4200",
"n  c #5B4D00",
"m  c #6D5C00",
"M  c #625300",
"N  c #705E00",
"B  c #756300",
"V  c #786600",
"C  c #002943",
"Z  c #002E4B",
"A  c #003242",
"S  c #00314C",
"D  c #003454",
"F  c #003758",
"G  c #003B60",
"H  c #005A40",
"J  c #00446E",
"K  c #004571",
"L  c #004975",
"P  c #004D7C",
"I  c #005777",
"U  c #846F00",
"Y  c #927C00",
"T  c #008617",
"R  c #009816",
"E  c #00921C",
"W  c #009818",
"Q  c #00A41B",
"!  c #00AE1A",
"~  c #00B11A",
"^  c #00BA1C",
"/  c #00A529",
"(  c #00B521",
")  c #00A934",
"_  c #00BD39",
"`  c #00CA1E",
"'  c #00C01C",
"]  c #00C624",
"[  c #00DC22",
"{  c #00D32A",
"}  c #00C83B",
"|  c #00DB35",
" . c #00E522",
".. c #00EB23",
"X. c #00E828",
"o. c #00F424",
"O. c #00FE26",
"+. c #00FB2A",
"@. c #00EC3B",
"#. c #00E833",
"$. c #00F534",
"%. c #00F830",
"&. c #00F339",
"*. c #008245",
"=. c #008E58",
"-. c #009751",
";. c #00A15E",
":. c #00BE5C",
">. c #009A79",
",. c #00BE6E",
"<. c #00A078",
"1. c #00A274",
"2. c #00C34F",
"3. c #00D756",
"4. c #00DB52",
"5. c #00D75A",
"6. c #00E24A",
"7. c #00EE41",
"8. c #00CB65",
"9. c #00D062",
"0. c #9C8400",
"q. c #AD9200",
"w. c #B69A00",
"e. c #BC9F00",
"r. c #CCAD00",
"t. c #C4A600",
"y. c #CFB000",
"u. c #DCBA00",
"i. c #E4C100",
"p. c #EAC600",
"a. c #F2CD00",
"s. c #FDD600",
"d. c #FFD800",
"f. c #F7D100",
"g. c #00568A",
"h. c #00588E",
"j. c #005D95",
"k. c #00689B",
"l. c #0064A2",
"z. c #006BAD",
"x. c #0074AC",
"c. c #006EB1",
"v. c #0075BC",
"b. c #007EBB",
"n. c #0079C3",
"m. c #007DC9",
"M. c #008181",
"N. c #008B8D",
"B. c #009B9B",
"V. c #00AD87",
"C. c #0087A5",
"Z. c #0093A1",
"A. c #0084B4",
"S. c #0081BA",
"D. c #0089B1",
"F. c #00B5B9",
"G. c #00C385",
"H. c #00C59E",
"J. c #0083D3",
"K. c #0086D8",
"L. c #0095D5",
"P. c #008EE4",
"I. c #0090E7",
"U. c #0092EB",
"Y. c #0096F1",
"T. c #009BF7",
"R. c #009CFB",
/* pixels */
"                                                                ",
"                        , , , , O .                             ",
"                    : L v.n.n.n.z.l.L C >                       ",
"              . 2 l x.n.n.n.n.n.n.n.n.n.x.*.g % .               ",
"        % s k T ! ~ ) b.n.n.n.n.n.n.n.n.<.X.O. .T X             ",
"      $ W ~ ~ ! ! ~ ~ N.n.n.n.n.n.n.n.C.} ..O.O.O.d             ",
"    . g ! ! ! ~ ^ ' ` 1.n.n.n.n.n.Z.:.[ ..o.O.O.O.Q .           ",
"    & / ! ! ~ ^ [ ..o.,.n.n.S.4.@.o.o.o.O.O.O.O.O.] .           ",
"    > =.! ! ^ [ o.O.O.6.n.n.9.+.O.O.O.O.O.O.O.O.O.{ .           ",
"    > k./ ~ ` o.O.O.O.+.D.n.b.4.O.O.O.O.O.O.O.O.O.{ .           ",
"    , z.M.( [ o.O.O.O.O.4.S.n.S.3.$.O.O.O.O.O.O...j . .         ",
"    y z.z.;...O.O.O.O.O.O.4.b.n.n.A.8.O.O.O.O.o.7 m e.Y -       ",
"    Z z.c.A.#.O.O.O.O.O.O.O.V.n.n.n.A.$.O.O.O.^ n s.d.d.e.o     ",
"    Z z.c.m.5.O.O.O.O.O.O.O.4.n.n.n.n.8.O.O.O.T Y d.d.d.s.V     ",
"    u c.c.m.G.O.O.O.O.O.O.O.+.B.n.n.n.S.8.7.$.! n s.d.d.d.r.@   ",
"    O r ; 4 8 Q o.o.O.O.O.O.O.$.n.n.n.n.n.n.n.@.$ u.d.d.d.i.=   ",
"    p y.s.s.t.- )  .o.o.O.O.O.$.n.n.n.n.n.n.n._ 9 f.d.d.d.r.@   ",
"  1 p.d.d.d.d.U i x c E R R R E P P P P P P J 3 w.d.d.d.d.V .   ",
"  m d.d.d.d.d.r.B B B B B B B N m m m m m B 0.u.d.d.d.d.p.5 X   ",
"  B d.d.d.d.d.d.d.d.d.d.d.d.d.d.d.d.d.d.d.d.d.d.d.d.d.d.U 2 %   ",
"  9 a.d.d.d.d.d.d.d.d.d.d.d.d.d.d.d.d.d.d.d.d.d.d.d.d.r.= a &   ",
"  . M a.d.d.d.d.d.d.d.d.d.d.d.d.d.d.d.d.d.d.d.s.d.s.w.1 7 s X   ",
"    . q 0.u.f.s.s.s.s.s.s.s.d.d.d.d.d.d.d.d.s.i.q.b $ 7 a a .   ",
"        . + # ; 1 1 1 1 1 1 0 q e w w e w 9 - < , r t a d 6 .   ",
"        . y G D S S A i f s s s s s A Z Z Z Z Z Z D D z k 6     ",
"        . J j.I v h g j j j j j j j H K K K K K L P g.k.-.&     ",
"        . g.J.>.^ ~ ~ ! ~ ~ ! ! ! ! M.z.z.z.c.c.c.v.m.J.v.O     ",
"          L Y.G... . . . . . . . .| L.P.P.P.P.P.I.U.Y.Y.h..     ",
"          r K.F.+.o.o.o.o.O.O.o.+.H.R.R.R.R.R.T.T.U.n.K O       ",
"            > J >.3.%.+.&.6.} 2.F.T.R.R.R.R.P.l.F , O           ",
"                . : & % & : O O , y J z.j.C + .                 ",
"                                      .                         "
};
